<?xml version="1.0" ?><svg id="Layer_1_1_" style="enable-background:new 0 0 16 16;" version="1.1" viewBox="0 0 16 16" xml:space="preserve" xmlns="http://www.w3.org/2000/svg" xmlns:xlink="http://www.w3.org/1999/xlink"><path d="M7.646,13.646l0.707,0.707l6-6c1.573-1.573,1.573-4.134,0-5.707c-1.574-1.574-4.133-1.574-5.707,0l-6.5,6.5  c-1.298,1.298-1.298,3.409,0,4.707c0.648,0.648,1.501,0.974,2.354,0.974s1.705-0.325,2.354-0.974l6-6  C13.349,7.358,13.621,6.7,13.621,6s-0.272-1.358-0.768-1.854c-0.99-0.99-2.717-0.99-3.707,0l-5.5,5.5l0.707,0.707l5.5-5.5  c0.611-0.611,1.682-0.611,2.293,0C12.452,5.159,12.621,5.566,12.621,6s-0.169,0.841-0.475,1.146l-6,6  c-0.908,0.908-2.385,0.908-3.293,0s-0.908-2.385,0-3.293l6.5-6.5c1.184-1.184,3.109-1.184,4.293,0s1.184,3.109,0,4.293L7.646,13.646  z"/></svg>